<svg width="712" height="627" viewBox="0 0 712 627" fill="none" xmlns="http://www.w3.org/2000/svg">
<ellipse cx="370.5" cy="312.5" rx="305.5" ry="309.5" fill="url(#paint0_linear_64_59)"/>
<mask id="path-2-inside-1_64_59" fill="white">
<path d="M165.301 79.7234C124.121 66.8857 93.0821 65.7816 75.4967 76.5288C57.9113 87.2761 54.4401 109.471 65.4537 140.745C76.4674 172.018 101.552 211.196 138.03 254.095C174.509 296.994 221.01 342.004 272.571 384.319C324.131 426.634 378.815 464.666 430.784 494.354C482.752 524.042 530.054 544.271 567.64 552.883C605.226 561.494 631.684 558.164 644.19 543.248C656.696 528.332 654.78 502.39 638.646 468.192L631.899 464.5C647.648 497.882 649.518 523.206 637.311 537.766C625.103 552.326 599.276 555.577 562.586 547.171C525.897 538.765 479.723 519.018 428.994 490.038C378.265 461.058 324.885 423.933 274.554 382.627C224.224 341.321 178.831 297.385 143.223 255.509C107.615 213.633 83.1281 175.39 72.3772 144.862C61.6262 114.335 65.0146 92.6687 82.1806 82.1778C99.3465 71.6868 129.646 72.7646 169.843 85.2961L165.301 79.7234Z"/>
</mask>
<path d="M165.301 79.7234C124.121 66.8857 93.0821 65.7816 75.4967 76.5288C57.9113 87.2761 54.4401 109.471 65.4537 140.745C76.4674 172.018 101.552 211.196 138.03 254.095C174.509 296.994 221.01 342.004 272.571 384.319C324.131 426.634 378.815 464.666 430.784 494.354C482.752 524.042 530.054 544.271 567.64 552.883C605.226 561.494 631.684 558.164 644.19 543.248C656.696 528.332 654.78 502.39 638.646 468.192L631.899 464.5C647.648 497.882 649.518 523.206 637.311 537.766C625.103 552.326 599.276 555.577 562.586 547.171C525.897 538.765 479.723 519.018 428.994 490.038C378.265 461.058 324.885 423.933 274.554 382.627C224.224 341.321 178.831 297.385 143.223 255.509C107.615 213.633 83.1281 175.39 72.3772 144.862C61.6262 114.335 65.0146 92.6687 82.1806 82.1778C99.3465 71.6868 129.646 72.7646 169.843 85.2961L165.301 79.7234Z" fill="url(#paint1_linear_64_59)" stroke="url(#paint2_linear_64_59)" stroke-opacity="0.79" stroke-width="6" mask="url(#path-2-inside-1_64_59)"/>
<defs>
<linearGradient id="paint0_linear_64_59" x1="215" y1="27" x2="502.5" y2="581" gradientUnits="userSpaceOnUse">
<stop offset="0.134615" stop-color="#D9D9D9" stop-opacity="0.15"/>
<stop offset="0.629808" stop-color="#D9D9D9" stop-opacity="0"/>
</linearGradient>
<linearGradient id="paint1_linear_64_59" x1="66.7648" y1="84.1766" x2="644.728" y2="542.589" gradientUnits="userSpaceOnUse">
<stop stop-color="white"/>
<stop offset="0.596154" stop-color="white" stop-opacity="0"/>
</linearGradient>
<linearGradient id="paint2_linear_64_59" x1="66.7648" y1="84.1766" x2="644.728" y2="542.589" gradientUnits="userSpaceOnUse">
<stop stop-color="white"/>
<stop offset="0.644231" stop-color="white" stop-opacity="0.04"/>
</linearGradient>
</defs>
</svg>
