<svg width="623" height="611" viewBox="0 0 623 611" fill="none" xmlns="http://www.w3.org/2000/svg">
<ellipse cx="313.5" cy="305.5" rx="309.5" ry="305" fill="url(#paint0_linear_64_59)"/>
<mask id="path-2-inside-1_64_59" fill="white">
<path d="M118.301 58.7234C76.1391 45.5795 44.6265 44.7414 27.2841 56.3029C9.9418 67.8644 7.45259 91.37 20.0947 124.194C32.7368 157.017 60.0123 197.866 98.8737 242.176C137.735 286.486 186.652 332.511 240.159 375.111C293.665 417.71 349.655 455.205 401.871 483.407C454.087 511.609 500.474 529.406 535.848 534.811C571.222 540.216 594.191 533.015 602.188 514.013C610.185 495.011 602.895 464.957 581.133 427.207L574.636 423.992C595.879 460.841 602.995 490.179 595.189 508.727C587.383 527.276 564.962 534.305 530.432 529.029C495.901 523.753 450.621 506.38 399.65 478.851C348.679 451.322 294.025 414.721 241.794 373.138C189.564 331.554 141.814 286.626 103.879 243.373C65.9446 200.12 39.3196 160.246 26.979 128.205C14.6384 96.1641 17.0683 73.2191 33.997 61.9333C50.9257 50.6476 81.6867 51.4657 122.843 64.2961L118.301 58.7234Z"/>
</mask>
<path d="M118.301 58.7234C76.1391 45.5795 44.6265 44.7414 27.2841 56.3029C9.9418 67.8644 7.45259 91.37 20.0947 124.194C32.7368 157.017 60.0123 197.866 98.8737 242.176C137.735 286.486 186.652 332.511 240.159 375.111C293.665 417.71 349.655 455.205 401.871 483.407C454.087 511.609 500.474 529.406 535.848 534.811C571.222 540.216 594.191 533.015 602.188 514.013C610.185 495.011 602.895 464.957 581.133 427.207L574.636 423.992C595.879 460.841 602.995 490.179 595.189 508.727C587.383 527.276 564.962 534.305 530.432 529.029C495.901 523.753 450.621 506.38 399.65 478.851C348.679 451.322 294.025 414.721 241.794 373.138C189.564 331.554 141.814 286.626 103.879 243.373C65.9446 200.12 39.3196 160.246 26.979 128.205C14.6384 96.1641 17.0683 73.2191 33.997 61.9333C50.9257 50.6476 81.6867 51.4657 122.843 64.2961L118.301 58.7234Z" fill="url(#paint1_linear_64_59)" stroke="url(#paint2_linear_64_59)" stroke-opacity="0.14" stroke-width="6" mask="url(#path-2-inside-1_64_59)"/>
<defs>
<linearGradient id="paint0_linear_64_59" x1="155.964" y1="24.1511" x2="434.739" y2="576.401" gradientUnits="userSpaceOnUse">
<stop offset="0.134615" stop-color="#D9D9D9" stop-opacity="0.15"/>
<stop offset="0.629808" stop-color="#D9D9D9" stop-opacity="0"/>
</linearGradient>
<linearGradient id="paint1_linear_64_59" x1="19.7648" y1="63.1766" x2="597.728" y2="521.589" gradientUnits="userSpaceOnUse">
<stop stop-color="white"/>
<stop offset="0.596154" stop-color="white" stop-opacity="0"/>
</linearGradient>
<linearGradient id="paint2_linear_64_59" x1="19.7648" y1="63.1766" x2="597.728" y2="521.589" gradientUnits="userSpaceOnUse">
<stop stop-color="white"/>
<stop offset="0.644231" stop-color="white" stop-opacity="0.04"/>
</linearGradient>
</defs>
</svg>
