<svg width="347" height="254" viewBox="0 0 347 254" fill="none" xmlns="http://www.w3.org/2000/svg">
<path d="M39.8836 3.65328C54.9353 -1.15207 65.2998 1.65105 68.6006 3.65328V58.7504C74.8039 62.4893 81.8781 66.2048 89.8907 69.7268C126.332 85.7446 182.643 91.7513 206.244 92.7524C235.786 92.7524 304.066 90 331 90C357.935 90 342.5 98.5 333.986 241.418C308.239 244.755 243.774 251.729 191.886 252.931C139.997 254.132 95.337 239.416 79.4931 231.907C72.3963 228.237 55.6281 217.892 45.3297 205.878C35.0314 193.865 29.4859 184.521 28.0005 181.351L29.0686 16.6678C28.7207 11.7275 31.0523 6.47271 39.8836 3.65328Z" fill="#5C5F8E" fill-opacity="0.31"/>
<path d="M29.0686 16.6678C28.7207 11.7275 31.0523 6.47271 39.8836 3.65328C54.9353 -1.15207 65.2998 1.65105 68.6006 3.65328V58.7504M29.0686 16.6678C29.3136 20.1475 30.888 23.4712 32.4568 25.6778C35.5467 31.9257 46.5917 45.4849 68.6006 58.7504M29.0686 16.6678L28.0005 181.351C29.4859 184.521 35.0314 193.865 45.3297 205.878C55.6281 217.892 72.3963 228.237 79.4931 231.907C95.337 239.416 139.997 254.132 191.886 252.931C243.774 251.729 308.239 244.755 333.986 241.418C342.5 98.5 357.935 90 331 90C304.066 90 235.786 92.7524 206.244 92.7524C182.643 91.7513 126.332 85.7446 89.8907 69.7268C81.8781 66.2048 74.8039 62.4893 68.6006 58.7504" stroke="#FFF7F7" stroke-opacity="0.65"/>
<path d="M114.296 121.187C101.772 118.413 88.3534 113.6 75.3712 107.226C62.389 100.852 50.2937 93.1378 40.2838 84.8476L43.0432 84.3201C52.4963 92.1492 63.9189 99.4346 76.179 105.454C88.4392 111.474 101.111 116.019 112.939 118.638L114.296 121.187Z" fill="#D9D9D9" fill-opacity="0.5"/>
<path d="M114.296 145.187C101.772 142.413 88.3534 137.6 75.3712 131.226C62.389 124.852 50.2937 117.138 40.2838 108.848L43.0432 108.32C52.4963 116.149 63.9189 123.435 76.179 129.454C88.4392 135.474 101.111 140.019 112.939 142.638L114.296 145.187Z" fill="#D9D9D9" fill-opacity="0.5"/>
<path d="M114.296 167.187C101.772 164.413 88.3534 159.6 75.3712 153.226C62.389 146.852 50.2937 139.138 40.2838 130.848L43.0432 130.32C52.4963 138.149 63.9189 145.435 76.179 151.454C88.4392 157.474 101.111 162.019 112.939 164.638L114.296 167.187Z" fill="#D9D9D9" fill-opacity="0.5"/>
</svg>
